<svg width="512" height="512" viewBox="0 0 512 512" fill="none" xmlns="http://www.w3.org/2000/svg">
<rect width="512" height="512" fill="#262626"/>
<path d="M451.12 151.718C447.438 159.955 437.704 190.908 431.651 204.68C415.801 245.929 408.5 274.823 398.766 318.839C390.217 353.911 387.784 375.211 387.784 391.75C387.784 402.754 387.784 404.105 389.032 407.58C391.465 411.699 391.465 414.466 390.28 417.233C387.846 419.292 385.412 420 380.545 420H375.678C358.643 418.649 335.492 406.937 323.324 395.225C319.643 391.106 314.776 384.22 313.59 378.751C311.156 373.281 312.342 355.391 313.59 345.03C313.59 341.62 314.838 337.437 314.838 337.437C313.59 337.437 311.156 338.788 307.537 340.204C235.715 373.924 190.6 391.75 168.697 395.225C165.016 395.932 161.397 395.932 156.529 395.932C150.414 395.932 143.114 395.932 137.061 395.225C109.043 390.398 78.5919 376.627 68.8575 362.92C56.6895 347.797 63.9904 323.73 90.76 296.895C119.963 266.65 196.715 211.63 267.352 211.63C283.201 211.63 298.988 214.397 316.086 219.867C320.953 221.218 328.254 223.985 331.936 226.044C336.803 228.104 340.484 229.455 340.484 229.455C340.484 229.455 342.918 223.985 345.352 217.743C349.033 203.328 355.086 190.908 363.635 170.316C367.316 161.371 370.936 153.842 369.75 153.842C369.75 153.842 349.033 157.96 323.449 164.138C299.113 169.608 266.229 177.201 251.627 179.969C237.025 183.379 215.123 188.913 201.707 191.681C189.539 195.091 171.256 199.21 161.521 201.333C150.539 204.1 140.805 206.803 139.619 207.511C135.937 208.862 131.07 209.57 122.584 209.57H118.902C115.221 209.57 112.787 208.862 107.92 208.219C88.4512 202.041 58 187.562 58 174.499C58 169.672 59.248 169.029 79.9023 163.495C89.6367 160.727 105.486 155.901 115.221 153.198C124.955 150.431 139.557 147.021 148.105 144.961C184.609 134.665 369.75 92 389.219 92C401.387 92 408.688 94.0593 420.856 101.653C435.457 109.246 445.192 118.835 450.059 129.131C453.74 135.309 453.74 144.253 451.307 151.847L451.12 151.718ZM297.678 272.056C296.43 266.586 295.245 256.225 293.997 255.582C292.749 254.874 280.581 259.7 267.227 265.234C233.157 279.006 197.838 303.073 174.688 327.141C172.254 329.2 171.006 331.259 171.006 331.259C171.006 331.259 177.121 329.2 183.174 326.433C213.625 312.662 242.829 298.955 272.094 285.183C292.811 275.531 297.678 273.471 297.678 272.12V272.056Z" fill="#A2DB00"/>
</svg>
